<?xml version="1.0" standalone="no"?>
<!DOCTYPE svg PUBLIC "-//W3C//DTD SVG 20010904//EN"
 "http://www.w3.org/TR/2001/REC-SVG-20010904/DTD/svg10.dtd">
<svg version="1.0" xmlns="http://www.w3.org/2000/svg"
 width="82.000000pt" height="32.000000pt" viewBox="0 0 82.000000 32.000000"
 preserveAspectRatio="xMidYMid meet">

<g transform="translate(0.000000,32.000000) scale(0.100000,-0.100000)"
fill="#000000" stroke="none">
<path d="M0 160 l0 -160 410 0 410 0 0 160 0 160 -410 0 -410 0 0 -160z m448
58 c14 -14 32 -1 32 23 0 10 4 19 9 19 17 0 20 -44 6 -73 -10 -20 -13 -46 -9
-86 6 -52 5 -57 -14 -57 -17 0 -21 9 -27 68 -3 37 -11 70 -16 74 -20 12 -29
53 -17 82 l11 27 7 -33 c4 -19 12 -38 18 -44z m150 -55 c-30 -3 -38 -9 -38
-24 0 -16 7 -19 43 -19 31 0 38 -3 27 -10 -8 -5 -26 -10 -39 -10 -23 0 -23 -1
-6 -26 22 -33 9 -46 -16 -16 -20 26 -41 90 -33 104 3 4 26 7 52 6 44 -1 44 -2
10 -5z m-494 -12 c4 -5 -2 -7 -12 -4 -26 6 -54 -24 -50 -56 3 -24 6 -26 56
-26 51 1 67 -7 36 -19 -77 -29 -148 40 -97 96 17 19 58 24 67 9z m164 -28 c13
-26 23 -83 14 -83 -5 0 -13 5 -19 11 -8 8 -17 8 -31 0 -21 -11 -52 -5 -64 13
-11 16 -10 21 13 50 24 31 73 36 87 9z m419 -33 c7 -26 7 -43 1 -47 -15 -8
-28 17 -28 55 0 44 14 40 27 -8z m43 30 c13 -7 21 -7 25 0 3 5 11 10 17 10 7
0 6 -5 -1 -14 -10 -12 -7 -18 13 -31 14 -10 26 -21 26 -26 0 -5 -11 -2 -24 6
-22 15 -24 14 -31 -7 l-8 -23 -4 25 c-3 14 -14 35 -26 48 -22 24 -17 28 13 12z
m-388 -22 c31 31 83 3 75 -40 -3 -21 -5 -20 -17 10 -14 38 -29 37 -48 -1 -14
-30 -29 -27 -42 7 -9 25 -1 44 11 25 6 -11 11 -11 21 -1z m143 -86 c-3 -3 -11
0 -18 7 -9 10 -8 11 6 5 10 -3 15 -9 12 -12z"/>
<path d="M214 120 c-38 -15 -42 -60 -5 -60 22 0 41 19 41 41 0 23 -10 28 -36
19z"/>
</g>
</svg>
