<?xml version="1.0" encoding="UTF-8"?>
<svg version="1.1" xmlns="http://www.w3.org/2000/svg" width="320" height="320">
<path d="M0 0 C105.6 0 211.2 0 320 0 C320 105.6 320 211.2 320 320 C214.4 320 108.8 320 0 320 C0 214.4 0 108.8 0 0 Z " fill="#000B28" transform="translate(0,0)"/>
<path d="M0 0 C2.02045442 0.60183749 4.02111039 1.27306096 6 2 C6.495 2.99 6.495 2.99 7 4 C7.66 4 8.32 4 9 4 C9 4.99 9 5.98 9 7 C10.3921875 6.2575 10.3921875 6.2575 11.8125 5.5 C15 4 15 4 18 4 C19.35439668 6.70879335 19.06501451 9.00933268 19 12 C18.01 12.33 17.02 12.66 16 13 C16.66 13 17.32 13 18 13 C18.66 14.32 19.32 15.64 20 17 C19.34 17 18.68 17 18 17 C18 17.66 18 18.32 18 19 C17.34 19 16.68 19 16 19 C16 19.66 16 20.32 16 21 C16.99 21 17.98 21 19 21 C20.16466575 25.3275905 21.31969447 29.65756813 22.46533203 33.99023438 C22.94751705 35.80272164 23.43993441 37.61247926 23.93359375 39.421875 C25.34541488 44.74491351 26.4902822 49.48432522 26 55 C25 56 25 56 22.1875 56.375 C19 56 19 56 16.90625 53.86328125 C12.06747565 46.59520421 11.56011016 36.55616555 11 28 C10.01 28.66 9.02 29.32 8 30 C8 29.34 8 28.68 8 28 C7.43796875 28.2165625 6.8759375 28.433125 6.296875 28.65625 C-3.33204126 31.84619772 -12.98905465 31.26473607 -23 31 C-21.36404656 37.12134226 -18.12016241 40.54644862 -13.8984375 45.12109375 C-11.55691359 48.67192321 -11.56381818 50.82584142 -12 55 C-13 56 -13 56 -16.1875 56.0625 C-21.51286768 54.57838114 -23.11733957 51.54393624 -26 47 C-27.56739275 44.06971413 -28.87527826 41.0776634 -30.125 38 C-30.46337891 37.18128418 -30.80175781 36.36256836 -31.15039062 35.51904297 C-34.7747551 26.48431938 -38.15897707 16.82101739 -38 7 C-29.87961686 4.35783939 -22.32472451 3.48703302 -13.8125 3.3125 C-12.66974609 3.27833984 -11.52699219 3.24417969 -10.34960938 3.20898438 C-7.56650462 3.12747085 -4.78367664 3.0580133 -2 3 C-1.67 2.34 -1.34 1.68 -1 1 C-0.67 0.67 -0.34 0.34 0 0 Z " fill="#0F1A38" transform="translate(245,128)"/>
<path d="M0 0 C-0.2165625 1.21236328 -0.2165625 1.21236328 -0.4375 2.44921875 C-0.623125 3.51785156 -0.80875 4.58648437 -1 5.6875 C-1.185625 6.74324219 -1.37125 7.79898438 -1.5625 8.88671875 C-2.47708203 14.36301929 -2.47708203 14.36301929 -0.5390625 19.3515625 C0.09257812 20.10179688 0.72421875 20.85203125 1.375 21.625 C3.38745556 24.05154106 5.24777144 26.37165717 7 29 C10.96 28.67 14.92 28.34 19 28 C19.09087891 26.55367187 19.09087891 26.55367187 19.18359375 25.078125 C19.26738281 23.81484375 19.35117188 22.5515625 19.4375 21.25 C19.51871094 19.99703125 19.59992188 18.7440625 19.68359375 17.453125 C19.92515522 14.81682447 20.24283934 12.51962706 21 10 C21.66 10 22.32 10 23 10 C27.54309649 18.4371792 28.03374893 26.64656019 27 36 C25.9725948 38.92721913 24.95212014 40.55984983 23 43 C22.34 43 21.68 43 21 43 C20.67 43.99 20.34 44.98 20 46 C19.34 46 18.68 46 18 46 C18.08564209 46.55123535 18.17128418 47.1024707 18.25952148 47.67041016 C20.41407202 61.78482564 21.62245582 75.72841278 22 90 C20.515 90.495 20.515 90.495 19 91 C19 91.66 19 92.32 19 93 C14.545 93.495 14.545 93.495 10 94 C10 94.99 10 95.98 10 97 C9.34 97 8.68 97 8 97 C7.36568884 92.62629991 6.7439136 88.25090407 6.125 83.875 C6.03085815 83.22084106 5.93671631 82.56668213 5.83972168 81.8927002 C4.72381038 74.11561284 3.83803892 66.39617169 3.40942383 58.54516602 C3.00781064 48.67420845 3.00781064 48.67420845 -2.0625 40.4375 C-2.77535156 39.85871094 -3.48820313 39.27992187 -4.22265625 38.68359375 C-6.45383982 36.57009898 -6.6667049 34.99965587 -7 32 C-7.66 32 -8.32 32 -9 32 C-10.79137559 27.37525346 -11.29740633 23.45072483 -11.3125 18.5 C-11.33763672 16.59734375 -11.33763672 16.59734375 -11.36328125 14.65625 C-10.74233022 8.40667831 -7.16693733 0 0 0 Z " fill="#EEF0F1" transform="translate(169,86)"/>
<path d="M0 0 C7.67110804 5.84545132 8.19670478 14.97878841 9.453125 23.921875 C9.65343985 25.4642023 9.8488138 27.00717995 10.0390625 28.55078125 C10.17755615 29.66501465 10.17755615 29.66501465 10.31884766 30.80175781 C10.91407953 36.11324719 10.91407953 36.11324719 9.7890625 38.36328125 C6.61873208 38.02360299 5.79023643 37.36458934 3.6015625 34.92578125 C1.7890625 32.36328125 1.7890625 32.36328125 0.7890625 30.36328125 C-2.69515323 30.94500444 -5.47919902 31.89334184 -8.6484375 33.42578125 C-15.57740623 36.28684191 -23.85914477 36.80984378 -31.01953125 34.4296875 C-33.29971181 33.32008092 -34.63188795 32.33709319 -36.2109375 30.36328125 C-37.99549215 25.0096173 -38.15619031 19.28664847 -36.41015625 13.88671875 C-32.74053696 6.54748017 -26.77630565 2.37285239 -19.7734375 -1.57421875 C-12.63958352 -3.70185941 -6.62871872 -3.42718862 0 0 Z " fill="#F3F5F6" transform="translate(101.2109375,146.63671875)"/>
<path d="M0 0 C1.40429047 0.01005265 2.80858793 0.01917445 4.21289062 0.02734375 C7.62127485 0.05076907 11.029295 0.08357254 14.4375 0.125 C14.9325 2.6 14.9325 2.6 15.4375 5.125 C5.8675 5.125 -3.7025 5.125 -13.5625 5.125 C-13.5625 10.075 -13.5625 15.025 -13.5625 20.125 C-3.0025 20.125 7.5575 20.125 18.4375 20.125 C16.4375 24.125 16.4375 24.125 13.9609375 25.3671875 C9.28000248 26.3739518 4.8334867 26.33847764 0.0625 26.25 C-1.32775391 26.23646484 -1.32775391 26.23646484 -2.74609375 26.22265625 C-5.01850077 26.19922937 -7.2903618 26.16642748 -9.5625 26.125 C-7.92654656 32.24634226 -4.68266241 35.67144862 -0.4609375 40.24609375 C1.88058641 43.79692321 1.87368182 45.95084142 1.4375 50.125 C0.4375 51.125 0.4375 51.125 -2.75 51.1875 C-8.07536768 49.70338114 -9.67983957 46.66893624 -12.5625 42.125 C-14.12989275 39.19471413 -15.43777826 36.2026634 -16.6875 33.125 C-17.02587891 32.30628418 -17.36425781 31.48756836 -17.71289062 30.64404297 C-21.27472948 21.76518165 -25.00401767 11.80159549 -24.5625 2.125 C-16.38495792 -0.17521671 -8.41975466 -0.10545835 0 0 Z " fill="#F6F8F9" transform="translate(231.5625,132.875)"/>
<path d="M0 0 C4.07327586 2.61853448 4.07327586 2.61853448 5.625 4.6875 C5.625 5.6775 5.625 6.6675 5.625 7.6875 C2.25037285 7.14026317 0.54265 6.6326 -2.375 4.6875 C-6.99938083 4.23264287 -9.37858728 4.19906239 -13.5625 6.25 C-18.89113912 10.8681539 -22.11470509 15.62984849 -23.375 22.6875 C-23.07894936 28.41114568 -21.78259809 32.36588756 -17.625 36.375 C-11.44251513 39.98144951 -4.61392812 40.71740254 2.26171875 39.046875 C4.13047011 38.51518005 5.99640373 37.97348102 7.859375 37.421875 C11.77502489 36.38212616 15.59220654 36.01805684 19.625 35.6875 C20.12 38.1625 20.12 38.1625 20.625 40.6875 C12.52262455 47.23172633 2.66267532 47.49187353 -7.375 46.6875 C-16.3120062 45.40583632 -22.75505438 41.76944018 -28.8203125 35.09765625 C-32.43741877 29.92494134 -32.27309465 23.72994383 -31.375 17.6875 C-28.66799374 9.93779624 -23.04735181 3.79570196 -16 -0.25 C-10.27220158 -1.92883747 -5.60210527 -2.17859649 0 0 Z " fill="#EDF0F3" transform="translate(38.375,137.3125)"/>
<path d="M0 0 C4.90366581 2.40725413 8.86934461 5.70439651 10.6875 11.00390625 C12.03620906 16.38937645 12.17563049 21.46763949 12 27 C9.69 27 7.38 27 5 27 C4.80664062 26.03578125 4.61328125 25.0715625 4.4140625 24.078125 C4.15367187 22.81484375 3.89328125 21.5515625 3.625 20.25 C3.36976563 18.99703125 3.11453125 17.7440625 2.8515625 16.453125 C1.68202625 11.71060186 1.09995821 9.73330548 -3 7 C-5.41344667 6.33256123 -5.41344667 6.33256123 -8 7 C-14.34218188 12.10468298 -15.27431692 20.42241955 -17 28 C-22.47023492 28.31954084 -22.47023492 28.31954084 -24.72265625 26.9609375 C-29.58080228 21.21047893 -32.22203786 14.26222347 -34 7 C-33.62890625 4.57421875 -33.62890625 4.57421875 -33 3 C-31.35 3 -29.7 3 -28 3 C-27.73445313 3.56589844 -27.46890625 4.13179687 -27.1953125 4.71484375 C-26.84210938 5.44832031 -26.48890625 6.18179688 -26.125 6.9375 C-25.60292969 8.03384766 -25.60292969 8.03384766 -25.0703125 9.15234375 C-24.1315023 11.16332459 -24.1315023 11.16332459 -22 12 C-22 11.29875 -22 10.5975 -22 9.875 C-18.79939629 0.67326434 -8.44130968 -0.85965247 0 0 Z " fill="#F2F5F7" transform="translate(152,155)"/>
<path d="M0 0 C-1.17314036 2.77287721 -2.65410934 4.82361288 -4.625 7.0625 C-7.31436107 9.75923113 -7.31436107 9.75923113 -7 13 C-4.99413632 14.72909021 -3.01789045 16.27242428 -0.875 17.8125 C0.31984262 18.70417843 1.51257942 19.59868607 2.703125 20.49609375 C3.56067383 21.14167236 3.56067383 21.14167236 4.43554688 21.80029297 C7.31763048 24.01043012 9.71195078 26.17358625 12 29 C11.6328125 31.1640625 11.6328125 31.1640625 11 33 C5.90712089 33 5.14163448 31.65742371 1.5625 28.1875 C-1.16739397 25.55632264 -3.58838632 23.2456131 -6.84765625 21.30078125 C-7.55792969 20.87152344 -8.26820313 20.44226563 -9 20 C-9 19.34 -9 18.68 -9 18 C-9.66 18 -10.32 18 -11 18 C-11 23.61 -11 29.22 -11 35 C-13.97 35.495 -13.97 35.495 -17 36 C-17.33 35.67 -17.66 35.34 -18 35 C-17.98706651 33.62511385 -17.91777725 32.25066643 -17.82421875 30.87890625 C-17.17578353 21.51910346 -17.17578353 21.51910346 -20.41699219 13.07568359 C-24.16169278 9.62039338 -28.44621025 7.23282594 -33 5 C-32.67 3.68 -32.34 2.36 -32 1 C-26.97306969 0.58723153 -24.62149099 1.47562844 -20.625 4.5 C-19.75101562 5.1496875 -18.87703125 5.799375 -17.9765625 6.46875 C-17.32429688 6.9740625 -16.67203125 7.479375 -16 8 C-15.52949219 7.59007812 -15.05898438 7.18015625 -14.57421875 6.7578125 C-13.95160156 6.21898437 -13.32898438 5.68015625 -12.6875 5.125 C-11.76517578 4.32449219 -11.76517578 4.32449219 -10.82421875 3.5078125 C-6.98950829 0.33822313 -4.91379695 -0.21839098 0 0 Z " fill="#F4F7F8" transform="translate(306,148)"/>
<path d="M0 0 C5.01715403 5.92936386 5.44043954 12.22720276 5.3203125 19.7265625 C4.87624986 24.26466605 3.73976086 28.30470525 1 32 C-0.31590257 32.70044461 -1.64830484 33.37139647 -3 34 C-3.10782291 40.51649368 -2.84322852 46.86450274 -2.125 53.33984375 C-2.03621582 54.18744766 -1.94743164 55.03505157 -1.85595703 55.90834045 C-1.48149738 59.48296173 -1.09525866 63.05627751 -0.70898438 66.62963867 C2.23891965 94.07572808 2.23891965 94.07572808 -1 99 C-4.63396678 100.02699061 -7.41871818 100.23967448 -11 99 C-11 98.34 -11 97.68 -11 97 C-11.66 97 -12.32 97 -13 97 C-17.59225513 87.58997722 -17.59225513 87.58997722 -17 83 C-16.34 83 -15.68 83 -15 83 C-15 82.01 -15 81.02 -15 80 C-10.545 79.505 -10.545 79.505 -6 79 C-6 78.34 -6 77.68 -6 77 C-5.01 76.505 -5.01 76.505 -4 76 C-4.37254609 64.85087674 -4.85502614 53.88998573 -6.5703125 42.859375 C-7.14526817 39.03330636 -7.49938129 35.85236994 -7 32 C-4.6875 29.875 -4.6875 29.875 -2 28 C0.93702186 23.34797956 1.41166741 19.37544139 1.25 14 C1.24484375 13.31421875 1.2396875 12.6284375 1.234375 11.921875 C1.17236518 7.86023154 0.77220224 3.98555995 0 0 Z " fill="#333D4C" transform="translate(194,100)"/>
<path d="M0 0 C1.62890625 1.0703125 1.62890625 1.0703125 3 3 C3.46875 6.3984375 3.46875 6.3984375 3.5 10.375 C3.5309375 11.68210938 3.561875 12.98921875 3.59375 14.3359375 C2.86642088 18.8243238 1.47417054 20.17626852 -2 23 C-6.85086959 26.43110288 -11.54275569 26.42015866 -17.29296875 26.59375 C-20 26 -20 26 -21.859375 23.70703125 C-23.46754429 19.8903829 -23.2497827 16.84876262 -22 13 C-18.07804522 5.18492834 -9.17169119 -1.78959828 0 0 Z " fill="#061132" transform="translate(94,150)"/>
<path d="M0 0 C0.8353125 0.556875 0.8353125 0.556875 1.6875 1.125 C1.6875 3.125 1.6875 5.125 1.6875 7.125 C2.3475 6.795 3.0075 6.465 3.6875 6.125 C4.06261719 7.27097656 4.43773438 8.41695312 4.82421875 9.59765625 C5.34052911 11.1278124 5.85749111 12.65774878 6.375 14.1875 C6.61927734 14.93966797 6.86355469 15.69183594 7.11523438 16.46679688 C8.92308957 21.753057 11.25060404 25.71617095 14.6875 30.125 C12.4790684 30.125 10.27030589 30.11506681 8.0625 30.0625 C5.66911765 29.95772059 5.66911765 29.95772059 3.6875 31.125 C3.3575 30.465 3.0275 29.805 2.6875 29.125 C2.0275 29.785 1.3675 30.445 0.6875 31.125 C-1.4375 30.75 -1.4375 30.75 -3.3125 30.125 C-3.43367188 29.03703125 -3.55484375 27.9490625 -3.6796875 26.828125 C-4.6562579 18.21288774 -5.76652219 9.66077112 -7.3125 1.125 C-2.6015625 -0.984375 -2.6015625 -0.984375 0 0 Z " fill="#0A1435" transform="translate(114.3125,152.875)"/>
<path d="M0 0 C1.16466575 4.3275905 2.31969447 8.65756813 3.46533203 12.99023438 C3.94751705 14.80272164 4.43993441 16.61247926 4.93359375 18.421875 C6.34541488 23.74491351 7.4902822 28.48432522 7 34 C6 35 6 35 3.1875 35.375 C0 35 0 35 -2.25 32.9375 C-6.29160215 26.1533821 -6.26179976 19.76011714 -6.125 12.0625 C-6.11597656 11.09248047 -6.10695313 10.12246094 -6.09765625 9.12304688 C-6.07426107 6.74843593 -6.04148176 4.37435224 -6 2 C-2.25 0 -2.25 0 0 0 Z " fill="#F2F5F7" transform="translate(264,149)"/>
<path d="M0 0 C0.99 0 1.98 0 3 0 C3 0.66 3 1.32 3 2 C2.34 2 1.68 2 1 2 C1.30893366 5.3753363 1.62278633 8.75019811 1.9375 12.125 C2.02451172 13.07632813 2.11152344 14.02765625 2.20117188 15.0078125 C2.56544138 18.89335387 2.94860975 22.70953335 3.62890625 26.5546875 C4 29 4 29 3 31 C4.65 31 6.3 31 8 31 C7.98839844 30.24074219 7.97679687 29.48148438 7.96484375 28.69921875 C7.95582031 27.70535156 7.94679687 26.71148437 7.9375 25.6875 C7.92589844 24.70136719 7.91429687 23.71523437 7.90234375 22.69921875 C8 20 8 20 9 17 C9.06740865 15.43881572 9.08514456 13.8749748 9.0625 12.3125 C9.05347656 11.50425781 9.04445312 10.69601563 9.03515625 9.86328125 C9.02355469 9.24839844 9.01195312 8.63351563 9 8 C9.33 8 9.66 8 10 8 C10.34011625 11.16597571 10.67083187 14.3328688 11 17.5 C11.09539062 18.386875 11.19078125 19.27375 11.2890625 20.1875 C11.83514946 25.49234474 12.0996753 30.66737152 12 36 C10.515 36.495 10.515 36.495 9 37 C9 37.66 9 38.32 9 39 C4.545 39.495 4.545 39.495 0 40 C0 40.99 0 41.98 0 43 C-0.66 43 -1.32 43 -2 43 C-2.3383344 40.62561751 -2.67079002 38.25065041 -3 35.875 C-3.14308594 34.87726563 -3.14308594 34.87726563 -3.2890625 33.859375 C-4.07586533 28.12695437 -4.37660941 22.96221124 -3.0625 17.3125 C-2.04569277 12.60081578 -1.57630042 7.95718781 -1.24609375 3.15234375 C-1 1 -1 1 0 0 Z " fill="#D5D8DB" transform="translate(179,140)"/>
<path d="M0 0 C2.80315976 2.80315976 2.54188385 4.96697883 2.875 8.875 C2.99617187 10.10992187 3.11734375 11.34484375 3.2421875 12.6171875 C3 16 3 16 1.16015625 18.44921875 C-1 20 -1 20 -3.4375 19.9375 C-7.07386946 18.60712093 -10.04488897 17.36444433 -12.3125 14.125 C-13.11268687 11.65169514 -13.14354627 9.58383294 -13 7 C-12.34 7 -11.68 7 -11 7 C-11 6.01 -11 5.02 -11 4 C-6.545 3.505 -6.545 3.505 -2 3 C-2 2.34 -2 1.68 -2 1 C-1.34 0.67 -0.68 0.34 0 0 Z " fill="#999FA9" transform="translate(190,176)"/>
<path d="M0 0 C0.76636091 3.46089679 1.17149371 6.76077488 1.31640625 10.30078125 C1.37924805 11.76547852 1.37924805 11.76547852 1.44335938 13.25976562 C1.48267578 14.26716797 1.52199219 15.27457031 1.5625 16.3125 C1.60568359 17.33923828 1.64886719 18.36597656 1.69335938 19.42382812 C1.79906825 21.94909569 1.90116468 24.47445562 2 27 C1.67 27 1.34 27 1 27 C0.67 29.97 0.34 32.94 0 36 C-1.65 36 -3.3 36 -5 36 C-7.29612756 16.03189066 -7.29612756 16.03189066 -7 7 C-5.68 6.67 -4.36 6.34 -3 6 C-3 5.34 -3 4.68 -3 4 C-3.66 3.67 -4.32 3.34 -5 3 C-1.125 0 -1.125 0 0 0 Z " fill="#E9E8E7" transform="translate(187,135)"/>
<path d="M0 0 C2.02045442 0.60183749 4.02111039 1.27306096 6 2 C6.495 2.99 6.495 2.99 7 4 C7.66 4 8.32 4 9 4 C9 4.99 9 5.98 9 7 C10.3921875 6.2575 10.3921875 6.2575 11.8125 5.5 C15 4 15 4 18 4 C19.35439668 6.70879335 19.06501451 9.00933268 19 12 C18.28972656 11.98839844 17.57945312 11.97679687 16.84765625 11.96484375 C15.92855469 11.95582031 15.00945312 11.94679687 14.0625 11.9375 C13.14597656 11.92589844 12.22945313 11.91429687 11.28515625 11.90234375 C9.03406673 11.74050951 9.03406673 11.74050951 8 13 C8.99 13.33 9.98 13.66 11 14 C9.68 14.33 8.36 14.66 7 15 C7 14.34 7 13.68 7 13 C5.68 13.33 4.36 13.66 3 14 C2.855625 12.865625 2.71125 11.73125 2.5625 10.5625 C2.38828522 7.19222799 2.38828522 7.19222799 1 6 C-1.0708472 5.8415735 -3.14678029 5.74875578 -5.22265625 5.68359375 C-7.11274414 5.62075195 -7.11274414 5.62075195 -9.04101562 5.55664062 C-10.38150736 5.51682404 -11.7220022 5.47711186 -13.0625 5.4375 C-14.40691523 5.39431958 -15.7513166 5.35070544 -17.09570312 5.30664062 C-20.3970234 5.20014642 -23.69842236 5.0981354 -27 5 C-27 4.67 -27 4.34 -27 4 C-14.625 3.505 -14.625 3.505 -2 3 C-1.67 2.34 -1.34 1.68 -1 1 C-0.67 0.67 -0.34 0.34 0 0 Z M4 9 C4.33 9.99 4.66 10.98 5 12 C5.33 11.01 5.66 10.02 6 9 C5.34 9 4.68 9 4 9 Z " fill="#121B36" transform="translate(245,128)"/>
<path d="M0 0 C3.1875 1.5 3.1875 1.5 5 3 C4.01 3.66 3.02 4.32 2 5 C1.67 4.01 1.34 3.02 1 2 C-2.34252724 1.92572162 -4.8035914 1.93453047 -8 3 C-7.67 3.99 -7.34 4.98 -7 6 C-8.14453125 7.68359375 -8.14453125 7.68359375 -9.8125 9.4375 C-12.07154124 11.83605447 -13.64287178 13.98783737 -15 17 C-15 15.35 -15 13.7 -15 12 C-15.598125 12.20625 -16.19625 12.4125 -16.8125 12.625 C-19 13 -19 13 -22 11 C-20.33009832 5.92107624 -18.0886486 3.95752529 -13.64453125 1.171875 C-9.12020266 -0.83299734 -4.83090934 -0.80387556 0 0 Z " fill="#F3F6F6" transform="translate(152,155)"/>
<path d="M0 0 C0 0.33 0 0.66 0 1 C-2.97 1 -5.94 1 -9 1 C-9.33 2.32 -9.66 3.64 -10 5 C-10.66 4.67 -11.32 4.34 -12 4 C-12 4.66 -12 5.32 -12 6 C-10.35 6 -8.7 6 -7 6 C-8.60546729 7.07031153 -10.22365779 8.12675472 -11.90234375 9.078125 C-17.97416043 12.57437261 -21.05906352 16.62797097 -24 23 C-24.66 21.02 -25.32 19.04 -26 17 C-24.625 15.5 -24.625 15.5 -23 14 C-22.34 14 -21.68 14 -21 14 C-21.26676204 12.01508358 -21.26676204 12.01508358 -22 10 C-22.99 9.67 -23.98 9.34 -25 9 C-16.83413018 2.44609409 -10.59202902 -0.5754221 0 0 Z " fill="#EEF2F4" transform="translate(95,144)"/>
<path d="M0 0 C-0.99 5.61 -1.98 11.22 -3 17 C-6 18 -6 18 -9 18 C-9.33 20.64 -9.66 23.28 -10 26 C-10.33 26 -10.66 26 -11 26 C-11.0816082 23.62429457 -11.14077222 21.25144159 -11.1875 18.875 C-11.21263672 18.20984375 -11.23777344 17.5446875 -11.26367188 16.859375 C-11.35611324 10.57336227 -9.56782716 6.80300124 -5.5 2.125 C-3 0 -3 0 0 0 Z " fill="#E0E6EA" transform="translate(169,86)"/>
<path d="M0 0 C5.01298027 5.92443123 5.45457158 12.22626512 5.30859375 19.72265625 C4.87564056 24.3207287 4.02559599 28.39893042 1 32 C-2.75 33.0625 -2.75 33.0625 -6 33 C-6 35.31 -6 37.62 -6 40 C-6.33 40 -6.66 40 -7 40 C-7.436751 34.75898802 -7.436751 34.75898802 -7 32 C-4.6875 29.875 -4.6875 29.875 -2 28 C0.93702186 23.34797956 1.41166741 19.37544139 1.25 14 C1.24484375 13.31421875 1.2396875 12.6284375 1.234375 11.921875 C1.17236518 7.86023154 0.77220224 3.98555995 0 0 Z " fill="#586072" transform="translate(194,100)"/>
<path d="M0 0 C5.02693031 -0.41276847 7.37850901 0.47562844 11.375 3.5 C12.24898438 4.1496875 13.12296875 4.799375 14.0234375 5.46875 C14.67570312 5.9740625 15.32796875 6.479375 16 7 C15 10 15 10 11 13 C7.04 10.03 3.08 7.06 -1 4 C-0.67 2.68 -0.34 1.36 0 0 Z " fill="#F0F3F6" transform="translate(274,149)"/>
<path d="M0 0 C0.309375 0.639375 0.61875 1.27875 0.9375 1.9375 C1.8345163 3.93610821 1.8345163 3.93610821 3 5 C3.66 4.01 4.32 3.02 5 2 C7.125 6.625 7.125 6.625 6 10 C5.34 9.67 4.68 9.34 4 9 C4.66 13.29 5.32 17.58 6 22 C5.34 22.33 4.68 22.66 4 23 C3.34 22.67 2.68 22.34 2 22 C2 21.34 2 20.68 2 20 C1.34 20 0.68 20 0 20 C-1.24591555 16.15348294 -1.14781806 12.30946388 -1.125 8.3125 C-1.12886719 7.62349609 -1.13273438 6.93449219 -1.13671875 6.22460938 C-1.12669335 1.12669335 -1.12669335 1.12669335 0 0 Z " fill="#F0F3F6" transform="translate(160,98)"/>
<path d="M0 0 C7.28695785 -0.474377 11.97181491 -0.28670939 18 4 C17.67 4.66 17.34 5.32 17 6 C16.01 6 15.02 6 14 6 C13.67 6.99 13.34 7.98 13 9 C12.01 8.67 11.02 8.34 10 8 C10 7.34 10 6.68 10 6 C5.71 5.67 1.42 5.34 -3 5 C-3 4.34 -3 3.68 -3 3 C-2.34 3 -1.68 3 -1 3 C-0.67 2.01 -0.34 1.02 0 0 Z " fill="#EEF2F6" transform="translate(86,145)"/>
<path d="M0 0 C8.25 0 16.5 0 25 0 C25 1.32 25 2.64 25 4 C17.41 4 9.82 4 2 4 C2 3.34 2 2.68 2 2 C1.34 2 0.68 2 0 2 C0 1.34 0 0.68 0 0 Z " fill="#F6FDFD" transform="translate(219,133)"/>
<path d="M0 0 C2 2 2 2 2.1953125 4.3828125 C2.17210937 5.28773438 2.14890625 6.19265625 2.125 7.125 C2.10695312 8.03507813 2.08890625 8.94515625 2.0703125 9.8828125 C2.04710937 10.58148438 2.02390625 11.28015625 2 12 C-0.35546875 12.1328125 -0.35546875 12.1328125 -3 12 C-5.99540173 9.24746868 -6.94165078 7.77312715 -7.25 3.6875 C-7.1675 2.800625 -7.085 1.91375 -7 1 C-4.48718205 -0.25640898 -2.78302919 -0.20872719 0 0 Z " fill="#1D2541" transform="translate(188,180)"/>
<path d="M0 0 C1.65 0 3.3 0 5 0 C5.26554687 0.55429688 5.53109375 1.10859375 5.8046875 1.6796875 C6.15789062 2.40414062 6.51109375 3.12859375 6.875 3.875 C7.39707031 4.95394531 7.39707031 4.95394531 7.9296875 6.0546875 C8.96557543 8.15135019 8.96557543 8.15135019 11 10 C10.34 10 9.68 10 9 10 C9 10.66 9 11.32 9 12 C7.68 11.67 6.36 11.34 5 11 C5 11.99 5 12.98 5 14 C5.66 14.33 6.32 14.66 7 15 C5.68 15.33 4.36 15.66 3 16 C2.29954544 14.08802961 1.615081 12.17019565 0.9375 10.25 C0.55464844 9.18265625 0.17179687 8.1153125 -0.22265625 7.015625 C-0.98010011 4.07719958 -1.07151741 2.77651052 0 0 Z " fill="#EEF4F5" transform="translate(119,158)"/>
<path d="M0 0 C-1.65334757 3.90791244 -4.26807489 6.78998799 -7 10 C-7.99 11.485 -7.99 11.485 -9 13 C-9.66 12.34 -10.32 11.68 -11 11 C-13.06874034 10.3574765 -13.06874034 10.3574765 -15 10 C-12.15557298 3.58609594 -7.33736696 -1.07376102 0 0 Z " fill="#F1F6F7" transform="translate(306,148)"/>
<path d="M0 0 C0.99 0.33 1.98 0.66 3 1 C2.98839844 1.6290625 2.97679687 2.258125 2.96484375 2.90625 C2.91528962 7.60681299 3.11017801 12.05549812 3.76953125 16.71875 C5.14052045 30.28921933 5.14052045 30.28921933 2 35 C0.66737093 23.28000331 -0.32188558 11.80247133 0 0 Z " fill="#484F5E" transform="translate(188,133)"/>
<path d="M0 0 C3.50391496 2.89072984 4.91307143 4.1307143 5.375 8.75 C5 12 5 12 4 13 C1.66055264 12.71269945 -0.6739143 12.38063221 -3 12 C-3.33 10.68 -3.66 9.36 -4 8 C-3.34 8 -2.68 8 -2 8 C-1.34 5.36 -0.68 2.72 0 0 Z " fill="#E9ECF1" transform="translate(228,171)"/>
<path d="M0 0 C0.33 1.32 0.66 2.64 1 4 C1.66 3.34 2.32 2.68 3 2 C5.475 3.98 5.475 3.98 8 6 C7.195625 6.763125 6.39125 7.52625 5.5625 8.3125 C2.83200976 10.79430898 2.83200976 10.79430898 2 14 C0.0625 13.25 0.0625 13.25 -2 12 C-3.28194775 8.7672622 -2.87656467 6.9037552 -1.5625 3.75 C-1.27503906 3.04359375 -0.98757812 2.3371875 -0.69140625 1.609375 C-0.46324219 1.07828125 -0.23507813 0.5471875 0 0 Z " fill="#0F1933" transform="translate(128,153)"/>
<path d="M0 0 C3.02006951 0.87423065 4.37081154 2.31216553 6.375 4.6875 C5.055 5.0175 3.735 5.3475 2.375 5.6875 C2.375 4.6975 2.375 3.7075 2.375 2.6875 C0.725 3.0175 -0.925 3.3475 -2.625 3.6875 C-2.625 4.3475 -2.625 5.0075 -2.625 5.6875 C-3.285 5.6875 -3.945 5.6875 -4.625 5.6875 C-4.295 8.3275 -3.965 10.9675 -3.625 13.6875 C-3.955 13.0275 -4.285 12.3675 -4.625 11.6875 C-5.285 11.6875 -5.945 11.6875 -6.625 11.6875 C-6.295 12.6775 -5.965 13.6675 -5.625 14.6875 C-6.945 14.6875 -8.265 14.6875 -9.625 14.6875 C-9.39818098 9.13043409 -8.07444883 6.08625665 -4.2421875 2.015625 C-2.625 0.6875 -2.625 0.6875 0 0 Z " fill="#141C30" transform="translate(146.625,160.3125)"/>
<path d="M0 0 C0.33 0 0.66 0 1 0 C1.34011625 3.16597571 1.67083187 6.3328688 2 9.5 C2.09539062 10.386875 2.19078125 11.27375 2.2890625 12.1875 C2.83514946 17.49234474 3.0996753 22.66737152 3 28 C1.02 28.99 1.02 28.99 -1 30 C-1.66 29.34 -2.32 28.68 -3 28 C-2.34 27.34 -1.68 26.68 -1 26 C-0.01 26 0.98 26 2 26 C1.51015625 25.44441406 1.0203125 24.88882813 0.515625 24.31640625 C-1.27236259 21.5837345 -1.34733578 20.16418102 -1.25 16.9375 C-1.23453125 16.08027344 -1.2190625 15.22304687 -1.203125 14.33984375 C-1 12 -1 12 0 9 C0.06740865 7.43881572 0.08514456 5.8749748 0.0625 4.3125 C0.05347656 3.50425781 0.04445312 2.69601563 0.03515625 1.86328125 C0.02355469 1.24839844 0.01195312 0.63351563 0 0 Z " fill="#C1C5CA" transform="translate(188,148)"/>
<path d="M0 0 C0.59375 1.91015625 0.59375 1.91015625 1 4 C0.505 4.474375 0.01 4.94875 -0.5 5.4375 C-0.995 5.953125 -1.49 6.46875 -2 7 C-1.81931089 9.48823926 -1.81931089 9.48823926 -1 12 C-0.7215625 13.1446875 -0.7215625 13.1446875 -0.4375 14.3125 C-0.293125 14.869375 -0.14875 15.42625 0 16 C-0.66 16 -1.32 16 -2 16 C-1.34 16.33 -0.68 16.66 0 17 C0 17.99 0 18.98 0 20 C-2.48587357 19.66855019 -3.67459316 19.38738909 -5.3125 17.4375 C-6.33923718 13.79725 -6.0610225 10.57431955 -5 7 C-3.52441649 4.42258276 -1.88400622 2.31877689 0 0 Z " fill="#161B37" transform="translate(77,156)"/>
<path d="M0 0 C-0.99 1.485 -0.99 1.485 -2 3 C-1.34 4.32 -0.68 5.64 0 7 C-4.62 7 -9.24 7 -14 7 C-12.68 6.01 -11.36 5.02 -10 4 C-11.32 3.01 -12.64 2.02 -14 1 C-12.04310963 0.63794536 -10.08442332 0.28558579 -8.125 -0.0625 C-7.03445312 -0.25972656 -5.94390625 -0.45695313 -4.8203125 -0.66015625 C-2 -1 -2 -1 0 0 Z " fill="#E5E9EE" transform="translate(45,177)"/>
<path d="M0 0 C0.33 0 0.66 0 1 0 C1.19476139 2.60380996 1.38108614 5.20775533 1.5625 7.8125 C1.61857422 8.55048828 1.67464844 9.28847656 1.73242188 10.04882812 C1.95769724 13.36788516 2.06255812 15.81232564 1 19 C2.32 19.66 3.64 20.32 5 21 C5.33 20.01 5.66 19.02 6 18 C6 19.65 6 21.3 6 23 C1.97751827 23.18284008 -0.50512026 22.98043185 -4 21 C-5.3242287 20.63215869 -6.65613912 20.28797019 -8 20 C-7.030625 19.38125 -6.06125 18.7625 -5.0625 18.125 C-1.97164638 16.34321154 -1.97164638 16.34321154 -1 14 C-0.76970044 11.62876754 -0.58880058 9.25258057 -0.4375 6.875 C-0.35371094 5.59367188 -0.26992187 4.31234375 -0.18359375 2.9921875 C-0.09271484 1.51105469 -0.09271484 1.51105469 0 0 Z " fill="#D5D8DB" transform="translate(97,154)"/>
<path d="M0 0 C0.66 0 1.32 0 2 0 C2.70133599 1.57725347 3.385583 3.16211333 4.0625 4.75 C4.44535156 5.63171875 4.82820312 6.5134375 5.22265625 7.421875 C6.04600008 10.15256309 5.9773992 11.36901347 5 14 C4.34 14 3.68 14 3 14 C2.34 13.34 1.68 12.68 1 12 C0.34 12 -0.32 12 -1 12 C-1.14285714 3.42857143 -1.14285714 3.42857143 0 0 Z " fill="#E0EAF2" transform="translate(190,96)"/>
<path d="M0 0 C0.33 1.32 0.66 2.64 1 4 C3.31 3.34 5.62 2.68 8 2 C8 1.67 8 1.34 8 1 C10.64 1 13.28 1 16 1 C15.34 2.65 14.68 4.3 14 6 C13.34 6 12.68 6 12 6 C12 5.34 12 4.68 12 4 C11.319375 4.53625 10.63875 5.0725 9.9375 5.625 C7 7 7 7 3.375 6.4375 C-0.00779393 4.99668036 -1.22187547 4.13786681 -3 1 C-2.01 0.67 -1.02 0.34 0 0 Z " fill="#E4EBF0" transform="translate(68,175)"/>
<path d="M0 0 C2.875 0.1875 2.875 0.1875 6 1 C7.375 3.5625 7.375 3.5625 8 6 C7.01 6 6.02 6 5 6 C4.01 6.33 3.02 6.66 2 7 C1.34 6.67 0.68 6.34 0 6 C0 6.66 0 7.32 0 8 C-1.32 7.67 -2.64 7.34 -4 7 C-3.01 6.34 -2.02 5.68 -1 5 C-0.27034634 2.43717258 -0.27034634 2.43717258 0 0 Z M1 7 C2.32 7.99 3.64 8.98 5 10 C3.02 10.33 1.04 10.66 -1 11 C-0.34 9.68 0.32 8.36 1 7 Z " fill="#151D37" transform="translate(59,173)"/>
<path d="M0 0 C0.33 0 0.66 0 1 0 C1.25413123 3.62370661 1.47405533 7.24868737 1.6875 10.875 C1.76033203 11.90753906 1.83316406 12.94007813 1.90820312 14.00390625 C1.96298828 14.99003906 2.01777344 15.97617188 2.07421875 16.9921875 C2.13182373 17.90339355 2.18942871 18.81459961 2.2487793 19.75341797 C2.16668213 20.49479004 2.08458496 21.23616211 2 22 C1.01 22.66 0.02 23.32 -1 24 C-3.09090909 7.53409091 -3.09090909 7.53409091 0 0 Z " fill="#DBDFDF" transform="translate(187,140)"/>
<path d="M0 0 C0.99 0 1.98 0 3 0 C3 0.66 3 1.32 3 2 C2.34 2 1.68 2 1 2 C1.66 10.58 2.32 19.16 3 28 C2.34 28 1.68 28 1 28 C0.66191643 24.62545836 0.33038682 21.25030319 0 17.875 C-0.09539062 16.92367187 -0.19078125 15.97234375 -0.2890625 14.9921875 C-1.22760116 5.33864704 -1.22760116 5.33864704 -1 1 C-0.67 0.67 -0.34 0.34 0 0 Z " fill="#A7A7A8" transform="translate(179,140)"/>
<path d="M0 0 C0.66 0.33 1.32 0.66 2 1 C2 1.66 2 2.32 2 3 C3.65 3.33 5.3 3.66 7 4 C7.33 5.32 7.66 6.64 8 8 C9.65 7.67 11.3 7.34 13 7 C12.67 7.99 12.34 8.98 12 10 C11.34 10 10.68 10 10 10 C9.67 10.66 9.34 11.32 9 12 C5.7 9.36 2.4 6.72 -1 4 C-0.67 2.68 -0.34 1.36 0 0 Z " fill="#151A2A" transform="translate(299,157)"/>
<path d="M0 0 C3.1875 1.5 3.1875 1.5 5 3 C4.01 3.66 3.02 4.32 2 5 C1.67 4.01 1.34 3.02 1 2 C-2.34252724 1.92572162 -4.8035914 1.93453047 -8 3 C-7.67 3.99 -7.34 4.98 -7 6 C-8.32 6.99 -9.64 7.98 -11 9 C-11 7.35 -11 5.7 -11 4 C-12.32 3.34 -13.64 2.68 -15 2 C-10.23544638 -0.81388932 -5.38455147 -0.54960658 0 0 Z " fill="#E6EAED" transform="translate(152,155)"/>
<path d="M0 0 C-6.07792208 6.24675325 -6.07792208 6.24675325 -9 8 C-9.99 7.67 -10.98 7.34 -12 7 C-11.8125 4.125 -11.8125 4.125 -11 1 C-7.21671495 -1.48615875 -4.28058182 -0.99548414 0 0 Z " fill="#0C1126" transform="translate(21,138)"/>
<path d="M0 0 C0.33 0 0.66 0 1 0 C1.22655901 3.08227709 1.42803465 6.1657016 1.625 9.25 C1.68945312 10.12269531 1.75390625 10.99539062 1.8203125 11.89453125 C1.871875 12.73886719 1.9234375 13.58320313 1.9765625 14.453125 C2.02893066 15.22817383 2.08129883 16.00322266 2.13525391 16.80175781 C1.9810467 19.30804237 1.25581508 20.84839873 0 23 C-0.33 21.02 -0.66 19.04 -1 17 C-1.66 18.32 -2.32 19.64 -3 21 C-3.29259393 15.4407153 -2.17077906 10.39242032 -1 5 C-0.6639933 3.33387024 -0.32990328 1.66734901 0 0 Z " fill="#D6D9DA" transform="translate(178,147)"/>
<path d="M0 0 C4.62 0 9.24 0 14 0 C14 0.33 14 0.66 14 1 C12.906875 1.020625 11.81375 1.04125 10.6875 1.0625 C7.04267663 1.56114043 7.04267663 1.56114043 5.8671875 3.625 C4.93575266 5.78223035 4.93575266 5.78223035 4 9 C2 7.3125 2 7.3125 0 5 C0 3.35 0 1.7 0 0 Z " fill="#323A4D" transform="translate(222,159)"/>
<path d="M0 0 C2.31 0.66 4.62 1.32 7 2 C6.01 2.495 6.01 2.495 5 3 C5 3.66 5 4.32 5 5 C4.01 5.495 4.01 5.495 3 6 C2.53348793 8.12576782 2.53348793 8.12576782 2.375 10.5625 C2.30023438 11.38878906 2.22546875 12.21507812 2.1484375 13.06640625 C2.09945312 13.70449219 2.05046875 14.34257812 2 15 C2.66 15.33 3.32 15.66 4 16 C3.67 18.97 3.34 21.94 3 25 C2.67 25 2.34 25 2 25 C1.66178803 22.14633646 1.3293022 19.29219404 1 16.4375 C0.90460938 15.63763672 0.80921875 14.83777344 0.7109375 14.01367188 C0.17285824 9.30547833 -0.10176703 4.73852735 0 0 Z " fill="#BEC7CF" transform="translate(172,135)"/>
<path d="M0 0 C0 1.65 0 3.3 0 5 C0.66 5 1.32 5 2 5 C2.45375 5.61875 2.9075 6.2375 3.375 6.875 C5.10279389 9.13442278 6.40813228 9.92750301 9 11 C5.75 11.75 5.75 11.75 2 12 C-0.375 10.5 -0.375 10.5 -2 8 C-2.75 4.25 -2.75 4.25 -3 1 C-1 0 -1 0 0 0 Z " fill="#939FAC" transform="translate(180,182)"/>
<path d="M0 0 C2.475 0.99 2.475 0.99 5 2 C5 4.31 5 6.62 5 9 C3.02 9.99 3.02 9.99 1 11 C1 10.34 1 9.68 1 9 C-0.65 9 -2.3 9 -4 9 C-3.67 8.34 -3.34 7.68 -3 7 C-2.34 7 -1.68 7 -1 7 C-0.67 4.69 -0.34 2.38 0 0 Z " fill="#081131" transform="translate(57,163)"/>
<path d="M0 0 C2.64 0 5.28 0 8 0 C8.33 0.99 8.66 1.98 9 3 C8.67 3.66 8.34 4.32 8 5 C4.37 5 0.74 5 -3 5 C-3 4.34 -3 3.68 -3 3 C-2.34 3 -1.68 3 -1 3 C-0.67 2.01 -0.34 1.02 0 0 Z " fill="#F8FCFD" transform="translate(86,145)"/>
<path d="M0 0 C3.32310483 1.16757737 5.83361132 2.14948857 8 5 C8 5.99 8 6.98 8 8 C4.62537285 7.45276317 2.91765 6.9451 0 5 C-1.9896995 4.60986284 -3.99019869 4.26797351 -6 4 C-6 3.67 -6 3.34 -6 3 C-4.02 3 -2.04 3 0 3 C0 2.01 0 1.02 0 0 Z " fill="#DCE5ED" transform="translate(36,137)"/>
<path d="M0 0 C0.33 0 0.66 0 1 0 C1 2.97 1 5.94 1 9 C-0.9914056 9.38133299 -2.99279077 9.71325582 -5 10 C-6 9 -6 9 -6.0625 5.9375 C-6.041875 4.968125 -6.02125 3.99875 -6 3 C-5.67 3.66 -5.34 4.32 -5 5 C-3.35 4.34 -1.7 3.68 0 3 C0 2.01 0 1.02 0 0 Z " fill="#E4EAEF" transform="translate(294,174)"/>
<path d="M0 0 C0.33 0.66 0.66 1.32 1 2 C1.66 2 2.32 2 3 2 C2.67 4.31 2.34 6.62 2 9 C2.66 9 3.32 9 4 9 C3.42805835 12.31726155 2.42999536 13.72635823 0 16 C-0.19441368 13.7089095 -0.38033135 11.41709663 -0.5625 9.125 C-0.71912109 7.21074219 -0.71912109 7.21074219 -0.87890625 5.2578125 C-1 2 -1 2 0 0 Z " fill="#061432" transform="translate(195,176)"/>
<path d="M0 0 C0.33 0 0.66 0 1 0 C0.67 6.27 0.34 12.54 0 19 C-0.99 18.34 -1.98 17.68 -3 17 C-2.88506243 15.10353002 -2.75760358 13.20781668 -2.625 11.3125 C-2.55539063 10.25675781 -2.48578125 9.20101562 -2.4140625 8.11328125 C-2.01239911 5.09322731 -1.25930981 2.75921946 0 0 Z " fill="#404353" transform="translate(169,86)"/>
<path d="M0 0 C-0.66 3.96 -1.32 7.92 -2 12 C-2.33 12 -2.66 12 -3 12 C-3 9.69 -3 7.38 -3 5 C-3.66 5 -4.32 5 -5 5 C-5 5.66 -5 6.32 -5 7 C-5.66 7 -6.32 7 -7 7 C-7.33 7.99 -7.66 8.98 -8 10 C-8.66 10 -9.32 10 -10 10 C-8.41650438 4.96160484 -5.719924 0 0 0 Z " fill="#C4CCD7" transform="translate(169,86)"/>
<path d="M0 0 C0.33 1.32 0.66 2.64 1 4 C2.98 3.34 4.96 2.68 7 2 C8.125 6.75 8.125 6.75 7 9 C3.85972637 8.66354211 2.94901705 7.94763914 0.6875 5.625 C0.130625 4.75875 -0.42625 3.8925 -1 3 C-0.67 2.01 -0.34 1.02 0 0 Z " fill="#E7EBF0" transform="translate(104,176)"/>
<path d="M0 0 C2.85373834 2.85373834 2.30010758 4.90116254 2.3125 8.875 C2.32925781 10.10992187 2.34601563 11.34484375 2.36328125 12.6171875 C1.98583035 16.13194532 1.39726471 17.48255579 -1 20 C-1.84010329 14.30596658 -1.8337465 11.5012395 0 6 C0.03920815 4.00038436 0.04443347 1.99950636 0 0 Z " fill="#121D39" transform="translate(156,95)"/>
<path d="M0 0 C0.79921875 0.00902344 1.5984375 0.01804688 2.421875 0.02734375 C3.02515625 0.03894531 3.6284375 0.05054688 4.25 0.0625 C2.484375 3.9609375 2.484375 3.9609375 0.375 4.875 C-1.92030283 5.07752672 -3.56733924 4.76406953 -5.75 4.0625 C-5.75 3.4025 -5.75 2.7425 -5.75 2.0625 C-6.74 1.7325 -7.73 1.4025 -8.75 1.0625 C-5.75519083 0.1901588 -3.11424089 -0.04579766 0 0 Z " fill="#F5FAF8" transform="translate(245.75,152.9375)"/>
<path d="M0 0 C0.99 0.33 1.98 0.66 3 1 C3 2.32 3 3.64 3 5 C-6.24 5 -15.48 5 -25 5 C-25 4.67 -25 4.34 -25 4 C-16.75 4 -8.5 4 0 4 C-0.33 3.01 -0.66 2.02 -1 1 C-0.67 0.67 -0.34 0.34 0 0 Z " fill="#DCE3EC" transform="translate(244,133)"/>
<path d="M0 0 C2.475 0.99 2.475 0.99 5 2 C5 1.34 5 0.68 5 0 C7.31 0.66 9.62 1.32 12 2 C11.34 2.66 10.68 3.32 10 4 C9.01 4 8.02 4 7 4 C6.67 4.99 6.34 5.98 6 7 C3.5625 6.3125 3.5625 6.3125 1 5 C0.1875 2.375 0.1875 2.375 0 0 Z " fill="#0A132D" transform="translate(275,144)"/>
<path d="M0 0 C1.98 0.99 3.96 1.98 6 3 C5.8125 4.8125 5.8125 4.8125 5 7 C2.4375 8.75 2.4375 8.75 0 10 C0 6.7 0 3.4 0 0 Z " fill="#080C1A" transform="translate(296,167)"/>
<path d="M0 0 C2 2 2 2 2.1953125 4.3828125 C2.17210937 5.28773438 2.14890625 6.19265625 2.125 7.125 C2.10695313 8.03507813 2.08890625 8.94515625 2.0703125 9.8828125 C2.04710937 10.58148438 2.02390625 11.28015625 2 12 C0.68 10.68 -0.64 9.36 -2 8 C-2.33 9.65 -2.66 11.3 -3 13 C-3.33 13 -3.66 13 -4 13 C-4 9.7 -4 6.4 -4 3 C-2.68 3.33 -1.36 3.66 0 4 C0 2.68 0 1.36 0 0 Z " fill="#010618" transform="translate(4,154)"/>
<path d="M0 0 C1.98362069 2.91708924 1.9876191 4.12380904 1.625 7.75 C1.41875 8.8225 1.2125 9.895 1 11 C0.21625 10.505 -0.5675 10.01 -1.375 9.5 C-3.78552327 7.83462035 -3.78552327 7.83462035 -6 8 C-4.55746343 4.63408134 -2.66735273 2.48952921 0 0 Z " fill="#E6EBED" transform="translate(297,150)"/>
<path d="M0 0 C2.5 1 2.5 1 4.3125 4.0625 C4.704375 5.031875 5.09625 6.00125 5.5 7 C4.84 7.66 4.18 8.32 3.5 9 C3.04625 8.525625 2.5925 8.05125 2.125 7.5625 C0.56741796 5.90972192 0.56741796 5.90972192 -1.5 5 C-1.5 4.34 -1.5 3.68 -1.5 3 C-2.82 2.67 -4.14 2.34 -5.5 2 C-2.5 0 -2.5 0 0 0 Z " fill="#1B2334" transform="translate(100.5,176)"/>
<path d="M0 0 C0.66 0.33 1.32 0.66 2 1 C2.32728047 4.60008519 2.40422813 6.41611492 0.3125 9.4375 C-2 11 -2 11 -4.6875 10.875 C-7 10 -7 10 -8 8 C-5.69 7.34 -3.38 6.68 -1 6 C-0.67 4.02 -0.34 2.04 0 0 Z " fill="#C0C9D3" transform="translate(191,185)"/>
<path d="M0 0 C2.3125 0.125 2.3125 0.125 5 1 C6.625 3.875 6.625 3.875 8 7 C9.56102491 8.81554159 9.56102491 8.81554159 11 10 C10.34 10.66 9.68 11.32 9 12 C7.68181446 10.56771184 6.37063296 9.12897516 5.0625 7.6875 C4.33160156 6.88699219 3.60070312 6.08648437 2.84765625 5.26171875 C1 3 1 3 0 0 Z " fill="#E1E5F2" transform="translate(162,120)"/>
<path d="M0 0 C1.31571603 0.2547514 2.62760376 0.52934141 3.9375 0.8125 C4.66839844 0.96332031 5.39929687 1.11414063 6.15234375 1.26953125 C6.76207031 1.51058594 7.37179688 1.75164062 8 2 C8.33 2.99 8.66 3.98 9 5 C5.7 5 2.4 5 -1 5 C-0.67 3.35 -0.34 1.7 0 0 Z " fill="#F6FAFD" transform="translate(29,178)"/>
<path d="M0 0 C0.90105469 0.00902344 1.80210938 0.01804688 2.73046875 0.02734375 C3.41753906 0.03894531 4.10460937 0.05054688 4.8125 0.0625 C4.8125 0.3925 4.8125 0.7225 4.8125 1.0625 C1.8425 1.0625 -1.1275 1.0625 -4.1875 1.0625 C-4.5175 2.3825 -4.8475 3.7025 -5.1875 5.0625 C-5.8475 4.7325 -6.5075 4.4025 -7.1875 4.0625 C-7.1875 4.7225 -7.1875 5.3825 -7.1875 6.0625 C-5.5375 6.0625 -3.8875 6.0625 -2.1875 6.0625 C-4.80691217 7.80877478 -6.22574877 8.44972388 -9.1875 9.0625 C-8.8575 6.4225 -8.5275 3.7825 -8.1875 1.0625 C-5.17259443 0.05753148 -3.14568308 -0.04085303 0 0 Z " fill="#CCD3D9" transform="translate(90.1875,143.9375)"/>
<path d="M0 0 C0.66 0 1.32 0 2 0 C1.67 1.98 1.34 3.96 1 6 C2.32 6 3.64 6 5 6 C5 7.98 5 9.96 5 12 C4.67 12 4.34 12 4 12 C4 10.35 4 8.7 4 7 C3.1028125 7.309375 3.1028125 7.309375 2.1875 7.625 C0 8 0 8 -3 6 C-1.125 1.125 -1.125 1.125 0 0 Z " fill="#E6EAEE" transform="translate(133,160)"/>
<path d="M0 0 C0.33 0 0.66 0 1 0 C1.22162857 2.77035709 1.42779249 5.54038995 1.625 8.3125 C1.68945312 9.09818359 1.75390625 9.88386719 1.8203125 10.69335938 C1.871875 11.45068359 1.9234375 12.20800781 1.9765625 12.98828125 C2.02893066 13.68477783 2.08129883 14.38127441 2.13525391 15.09887695 C2 17 2 17 0 20 C-2.14006369 13.57980892 -0.95781181 6.58495622 0 0 Z " fill="#0E1730" transform="translate(172,142)"/>
<path d="M0 0 C2.00720923 0.28674418 4.0085944 0.61866701 6 1 C4.35 2.98 2.7 4.96 1 7 C-0.32 6.34 -1.64 5.68 -3 5 C-1.125 1.125 -1.125 1.125 0 0 Z " fill="#F8FAFC" transform="translate(19,141)"/>
<path d="M0 0 C1.051875 0.433125 1.051875 0.433125 2.125 0.875 C5.05452503 2.02133588 8.00921653 3.02625654 11 4 C11 4.66 11 5.32 11 6 C8.69 6.33 6.38 6.66 4 7 C4 6.34 4 5.68 4 5 C3.34 5 2.68 5 2 5 C1.34 3.35 0.68 1.7 0 0 Z " fill="#374053" transform="translate(179,192)"/>
<path d="M0 0 C2.31 0.33 4.62 0.66 7 1 C6.34 2.65 5.68 4.3 5 6 C2.36 5.67 -0.28 5.34 -3 5 C-2.01 4.67 -1.02 4.34 0 4 C0 2.68 0 1.36 0 0 Z " fill="#DEE2E6" transform="translate(23,176)"/>
<path d="M0 0 C3.79588866 0.54226981 5.47211993 2.20127563 8 5 C7.67 5.66 7.34 6.32 7 7 C4.36 6.34 1.72 5.68 -1 5 C-0.67 4.34 -0.34 3.68 0 3 C0 2.01 0 1.02 0 0 Z " fill="#0D152C" transform="translate(272,153)"/>
<path d="M0 0 C1.98 0 3.96 0 6 0 C6.33 0.66 6.66 1.32 7 2 C6.34 2.66 5.68 3.32 5 4 C4.34 3.67 3.68 3.34 3 3 C3 3.66 3 4.32 3 5 C3.66 5 4.32 5 5 5 C5 5.66 5 6.32 5 7 C3 6 1 5 -1 4 C-0.67 2.68 -0.34 1.36 0 0 Z " fill="#E1E6EC" transform="translate(274,149)"/>
<path d="M0 0 C0.99 0 1.98 0 3 0 C4.60725635 3.21451269 4.05748185 6.43612536 4 10 C1.4375 7.8125 1.4375 7.8125 -1 5 C-0.8125 2.1875 -0.8125 2.1875 0 0 Z " fill="#090C1A" transform="translate(316,170)"/>
<path d="M0 0 C-1 3 -1 3 -3 5 C-3 5.33 -3 5.66 -3 6 C-5.97 6 -8.94 6 -12 6 C-12 5.01 -12 4.02 -12 3 C-10.35 3 -8.7 3 -7 3 C-7 3.66 -7 4.32 -7 5 C-6.34 5 -5.68 5 -5 5 C-5.33 3.68 -5.66 2.36 -6 1 C-3 0 -3 0 0 0 Z " fill="#F8FCFD" transform="translate(87,176)"/>
<path d="M0 0 C1.9375 0.1875 1.9375 0.1875 4 1 C5.25 3.0625 5.25 3.0625 6 5 C3.36 5 0.72 5 -2 5 C-1.125 1.125 -1.125 1.125 0 0 Z " fill="#E8F0F6" transform="translate(257,133)"/>
<path d="M0 0 C-0.66 1.98 -1.32 3.96 -2 6 C-3.98 6.33 -5.96 6.66 -8 7 C-8 6.34 -8 5.68 -8 5 C-7.01 5 -6.02 5 -5 5 C-5.33 4.01 -5.66 3.02 -6 2 C-3 0 -3 0 0 0 Z " fill="#293449" transform="translate(195,193)"/>
<path d="M0 0 C0.66 0.33 1.32 0.66 2 1 C2 2.65 2 4.3 2 6 C-0.8125 6.3125 -0.8125 6.3125 -4 6 C-5.875 3.5 -5.875 3.5 -7 1 C-4.03 1.495 -4.03 1.495 -1 2 C-0.67 1.34 -0.34 0.68 0 0 Z " fill="#E8EDF4" transform="translate(268,178)"/>
<path d="M0 0 C0.05399736 1.45792884 0.09279177 2.91642712 0.125 4.375 C0.14820313 5.18710938 0.17140625 5.99921875 0.1953125 6.8359375 C0 9 0 9 -2 11 C-2.12375 9.865625 -2.2475 8.73125 -2.375 7.5625 C-2.58125 6.386875 -2.7875 5.21125 -3 4 C-3.66 3.67 -4.32 3.34 -5 3 C-1.125 0 -1.125 0 0 0 Z M-5 6 C-4.34 6.33 -3.68 6.66 -3 7 C-4.32 7.33 -5.64 7.66 -7 8 C-6.34 7.34 -5.68 6.68 -5 6 Z " fill="#E6E6E5" transform="translate(187,135)"/>
<path d="M0 0 C1.32 0 2.64 0 4 0 C4 6.93 4 13.86 4 21 C3.67 21 3.34 21 3 21 C2.95101563 19.81921875 2.90203125 18.6384375 2.8515625 17.421875 C2.77651121 15.86456063 2.70096439 14.30727009 2.625 12.75 C2.5940625 11.97269531 2.563125 11.19539062 2.53125 10.39453125 C2.27341758 4.92620093 2.27341758 4.92620093 0 0 Z " fill="#01051B" transform="translate(283,163)"/>
<path d="M0 0 C1.32 0.33 2.64 0.66 4 1 C3.01 1 2.02 1 1 1 C0.67 2.98 0.34 4.96 0 7 C-2.375 7.625 -2.375 7.625 -5 8 C-5.66 7.34 -6.32 6.68 -7 6 C-6.34 5.34 -5.68 4.68 -5 4 C-4.01 4 -3.02 4 -2 4 C-2 3.34 -2 2.68 -2 2 C-1.34 2 -0.68 2 0 2 C0 1.34 0 0.68 0 0 Z " fill="#F9FCFD" transform="translate(81,146)"/>
<path d="M0 0 C0.66 0 1.32 0 2 0 C2.33 1.98 2.66 3.96 3 6 C-1.51720311 6.36625971 -1.51720311 6.36625971 -3.8125 4.625 C-5 3 -5 3 -5 1 C-2.525 1.495 -2.525 1.495 0 2 C0 1.34 0 0.68 0 0 Z " fill="#101A33" transform="translate(187,186)"/>
<path d="M0 0 C0.99 0 1.98 0 3 0 C4.35439668 2.70879335 4.06501451 5.00933268 4 8 C0.7 8 -2.6 8 -6 8 C-6 6.35 -6 4.7 -6 3 C-5.67 3.99 -5.34 4.98 -5 6 C-2.36 6 0.28 6 3 6 C2.2575 5.071875 2.2575 5.071875 1.5 4.125 C0 2 0 2 0 0 Z " fill="#323A51" transform="translate(260,132)"/>
<path d="M0 0 C0.33 0 0.66 0 1 0 C1.125 2.375 1.125 2.375 1 5 C0.34 5.66 -0.32 6.32 -1 7 C-2.32 7 -3.64 7 -5 7 C-5 9.31 -5 11.62 -5 14 C-5.33 14 -5.66 14 -6 14 C-6.43921569 8.72941176 -6.43921569 8.72941176 -6 6 C-3.5625 3.625 -3.5625 3.625 -1 2 C-0.67 1.34 -0.34 0.68 0 0 Z " fill="#878D99" transform="translate(193,126)"/>
<path d="M0 0 C1.32 0 2.64 0 4 0 C4 0.66 4 1.32 4 2 C4.99 2.33 5.98 2.66 7 3 C6.67 3.66 6.34 4.32 6 5 C3.36 4.67 0.72 4.34 -2 4 C-1.34 2.68 -0.68 1.36 0 0 Z " fill="#091435" transform="translate(164,81)"/>
<path d="M0 0 C-0.66 1.65 -1.32 3.3 -2 5 C-2.66 5 -3.32 5 -4 5 C-4 4.34 -4 3.68 -4 3 C-6.31 3 -8.62 3 -11 3 C-8.21756596 -1.17365106 -4.53441502 -0.22300402 0 0 Z " fill="#DDDFE1" transform="translate(84,176)"/>
<path d="M0 0 C0 0.66 0 1.32 0 2 C-3.87684087 3.19287411 -6.91621923 4 -11 4 C-11 3.34 -11 2.68 -11 2 C-7.17010894 0.19769832 -4.21878192 -0.19622241 0 0 Z " fill="#1A2333" transform="translate(94,150)"/>
<path d="M0 0 C0.94875 0.350625 1.8975 0.70125 2.875 1.0625 C-1.875 4.9375 -1.875 4.9375 -4.125 6.0625 C-4.455 4.0825 -4.785 2.1025 -5.125 0.0625 C-3.125 -0.9375 -3.125 -0.9375 0 0 Z " fill="#151E37" transform="translate(77.125,144.9375)"/>
<path d="M0 0 C0.66 0.33 1.32 0.66 2 1 C1.01 1.33 0.02 1.66 -1 2 C-0.34 2.33 0.32 2.66 1 3 C1.4140625 5.06640625 1.4140625 5.06640625 1.625 7.5625 C1.69976562 8.38878906 1.77453125 9.21507812 1.8515625 10.06640625 C1.90054688 10.70449219 1.94953125 11.34257812 2 12 C0 9 0 9 -1 7 C-1.66 7 -2.32 7 -3 7 C-2.625 4.0625 -2.625 4.0625 -2 1 C-1.34 0.67 -0.68 0.34 0 0 Z " fill="#161E3A" transform="translate(206,132)"/>
<path d="M0 0 C1.0625 1.8125 1.0625 1.8125 2 4 C1.67 4.99 1.34 5.98 1 7 C1 6.34 1 5.68 1 5 C0.34 5 -0.32 5 -1 5 C-0.67 5.99 -0.34 6.98 0 8 C-1.32 8 -2.64 8 -4 8 C-3.50168276 4.31245243 -2.89932357 2.39509338 0 0 Z " fill="#0B1433" transform="translate(141,167)"/>
<path d="M0 0 C1.5625 1.1875 1.5625 1.1875 3 3 C2.6875 5.6875 2.6875 5.6875 2 8 C1.01 8 0.02 8 -1 8 C-1.33 5.69 -1.66 3.38 -2 1 C-1.34 0.67 -0.68 0.34 0 0 Z " fill="#1B2338" transform="translate(164,165)"/>
<path d="M0 0 C1.98 0 3.96 0 6 0 C6.33 0.99 6.66 1.98 7 3 C5.5625 5.1875 5.5625 5.1875 4 7 C3.67 5.68 3.34 4.36 3 3 C2.34 3 1.68 3 1 3 C0.67 2.01 0.34 1.02 0 0 Z " fill="#061035" transform="translate(161,160)"/>
<path d="M0 0 C-0.99 0 -1.98 0 -3 0 C-3 0.66 -3 1.32 -3 2 C-8.2734375 5.22265625 -8.2734375 5.22265625 -10 6 C-10.66 5.67 -11.32 5.34 -12 5 C-4.50757576 -1.35227273 -4.50757576 -1.35227273 0 0 Z " fill="#212535" transform="translate(32,142)"/>
<path d="M0 0 C0.99 0 1.98 0 3 0 C3 0.66 3 1.32 3 2 C2.34 2 1.68 2 1 2 C1 5.96 1 9.92 1 14 C0.67 14 0.34 14 0 14 C-0.19393875 11.85473901 -0.37998676 9.70876323 -0.5625 7.5625 C-0.71912109 5.77005859 -0.71912109 5.77005859 -0.87890625 3.94140625 C-0.91886719 2.97074219 -0.95882812 2.00007812 -1 1 C-0.67 0.67 -0.34 0.34 0 0 Z " fill="#969696" transform="translate(179,140)"/>
<path d="M0 0 C0.66 0 1.32 0 2 0 C1.1875 3.4375 1.1875 3.4375 0 7 C-0.99 7.33 -1.98 7.66 -3 8 C-4 7 -4 7 -4.0625 4.4375 C-4.041875 3.633125 -4.02125 2.82875 -4 2 C-3.34 2.66 -2.68 3.32 -2 4 C-1.34 2.68 -0.68 1.36 0 0 Z " fill="#172240" transform="translate(237,176)"/>
<path d="M0 0 C0.66 0.33 1.32 0.66 2 1 C2 2.65 2 4.3 2 6 C0.02 6.99 0.02 6.99 -2 8 C-2 4.23312136 -1.76462683 3.08809695 0 0 Z " fill="#051331" transform="translate(230,161)"/>
<path d="M0 0 C2.64 0 5.28 0 8 0 C7.67 1.32 7.34 2.64 7 4 C5.02 4 3.04 4 1 4 C0.67 2.68 0.34 1.36 0 0 Z " fill="#FAFDFE" transform="translate(143,156)"/>
<path d="M0 0 C0.33 0.66 0.66 1.32 1 2 C0.34 2 -0.32 2 -1 2 C-1 2.66 -1 3.32 -1 4 C-1.639375 4.28875 -2.27875 4.5775 -2.9375 4.875 C-5.15206079 5.82823451 -5.15206079 5.82823451 -6 8 C-7.32 7.67 -8.64 7.34 -10 7 C-8.70982586 6.01886757 -7.41780894 5.04015801 -6.125 4.0625 C-5.04605469 3.24458984 -5.04605469 3.24458984 -3.9453125 2.41015625 C-2 1 -2 1 0 0 Z " fill="#DEE2E8" transform="translate(80,146)"/>
<path d="M0 0 C0.33 0.66 0.66 1.32 1 2 C0.34 1.67 -0.32 1.34 -1 1 C-0.67 0.67 -0.34 0.34 0 0 Z M-6 1 C-3.525 1.495 -3.525 1.495 -1 2 C-1 2.99 -1 3.98 -1 5 C-0.01 5.33 0.98 5.66 2 6 C1.01 6.495 1.01 6.495 0 7 C-0.65213292 9.02463255 -0.65213292 9.02463255 -1 11 C-1.12375 9.081875 -1.12375 9.081875 -1.25 7.125 C-1.45869931 4.94666582 -1.45869931 4.94666582 -2 3 C-3.92064793 1.4100567 -3.92064793 1.4100567 -6 1 Z " fill="#1F2D4D" transform="translate(190,89)"/>
<path d="M0 0 C2.64 0 5.28 0 8 0 C7.67 1.32 7.34 2.64 7 4 C4.03 3.505 4.03 3.505 1 3 C0.67 2.01 0.34 1.02 0 0 Z " fill="#061037" transform="translate(104,186)"/>
<path d="M0 0 C1.65 1.65 3.3 3.3 5 5 C3.1875 5.6875 3.1875 5.6875 1 6 C-0.75 4.6875 -0.75 4.6875 -2 3 C-2 2.34 -2 1.68 -2 1 C-1.34 0.67 -0.68 0.34 0 0 Z " fill="#121A32" transform="translate(219,176)"/>
<path d="M0 0 C0.66 0.33 1.32 0.66 2 1 C2.33 1.99 2.66 2.98 3 4 C4.49985609 5.66710346 4.49985609 5.66710346 6 7 C5.01 7.33 4.02 7.66 3 8 C0.9375 6.25 0.9375 6.25 -1 4 C-0.75 1.75 -0.75 1.75 0 0 Z " fill="#F5F9FB" transform="translate(308,171)"/>
<path d="M0 0 C0.33 0.99 0.66 1.98 1 3 C-2.625 6 -2.625 6 -6 6 C-6.33 6.66 -6.66 7.32 -7 8 C-7.33 6.35 -7.66 4.7 -8 3 C-6.576875 3.0928125 -6.576875 3.0928125 -5.125 3.1875 C-3.578125 3.0946875 -3.578125 3.0946875 -2 3 C-1.34 2.01 -0.68 1.02 0 0 Z " fill="#D1D1D1" transform="translate(188,168)"/>
<path d="M0 0 C1.98 0.99 1.98 0.99 4 2 C3.67 2.99 3.34 3.98 3 5 C2.01 4.34 1.02 3.68 0 3 C0 2.01 0 1.02 0 0 Z M0 4 C0.66 4 1.32 4 2 4 C2.66 5.65 3.32 7.3 4 9 C1.525 8.01 1.525 8.01 -1 7 C-0.67 6.01 -0.34 5.02 0 4 Z " fill="#E1E4E8" transform="translate(298,161)"/>
<path d="M0 0 C11.70615034 -0.55353075 11.70615034 -0.55353075 16 3 C15.01 3.66 14.02 4.32 13 5 C12.67 4.01 12.34 3.02 12 2 C8.04 1.67 4.08 1.34 0 1 C0 0.67 0 0.34 0 0 Z " fill="#D5DDE7" transform="translate(141,155)"/>
<path d="M0 0 C2.31 0 4.62 0 7 0 C7.66 1.32 8.32 2.64 9 4 C7.68 4.33 6.36 4.66 5 5 C4.67 4.34 4.34 3.68 4 3 C1.47266765 2.34444881 1.47266765 2.34444881 -1 2 C-0.67 1.34 -0.34 0.68 0 0 Z " fill="#010719" transform="translate(302,145)"/>
<path d="M0 0 C1.88391785 3.26545761 2.49287967 6.28111761 3 10 C2.01 10 1.02 10 0 10 C-1.125 8.375 -1.125 8.375 -2 6 C-1.125 2.75 -1.125 2.75 0 0 Z " fill="#DBE1E9" transform="translate(193,100)"/>
<path d="M0 0 C0.33 0 0.66 0 1 0 C1 2.64 1 5.28 1 8 C-0.98 8.99 -0.98 8.99 -3 10 C-3.66 9.34 -4.32 8.68 -5 8 C-4.34 7.34 -3.68 6.68 -3 6 C-2.01 6 -1.02 6 0 6 C0 4.02 0 2.04 0 0 Z " fill="#B1B4B6" transform="translate(190,168)"/>
<path d="M0 0 C0.75 1.6875 0.75 1.6875 1 4 C-0.8125 6.75 -0.8125 6.75 -3 9 C-3.66 9 -4.32 9 -5 9 C-3.7508258 5.54074837 -2.32472205 2.85306797 0 0 Z " fill="#1D2438" transform="translate(77,156)"/>
<path d="M0 0 C0.33 0 0.66 0 1 0 C1.25 7.625 1.25 7.625 -1 11 C-2.0257259 6.58937864 -2.03684712 4.07369424 0 0 Z " fill="#464E5F" transform="translate(169,86)"/>
<path d="M0 0 C5.875 3.75 5.875 3.75 7 6 C5.68 6.33 4.36 6.66 3 7 C2.67 6.01 2.34 5.02 2 4 C1.34 4 0.68 4 0 4 C0 2.68 0 1.36 0 0 Z " fill="#03071A" transform="translate(306,177)"/>
<path d="M0 0 C3.36720387 1.39332574 4.9859524 2.9789286 7 6 C4 6 4 6 1.8125 4.125 C0 2 0 2 0 0 Z " fill="#141A26" transform="translate(306,175)"/>
<path d="M0 0 C1.65 0.33 3.3 0.66 5 1 C4.67 1.99 4.34 2.98 4 4 C2.35 4.33 0.7 4.66 -1 5 C-0.67 3.35 -0.34 1.7 0 0 Z " fill="#FBFDFB" transform="translate(49,175)"/>
<path d="M0 0 C2.475 0.99 2.475 0.99 5 2 C4.67 3.32 4.34 4.64 4 6 C3.01 5.67 2.02 5.34 1 5 C0.67 3.35 0.34 1.7 0 0 Z " fill="#EAEFF3" transform="translate(219,172)"/>
<path d="M0 0 C-0.33 1.32 -0.66 2.64 -1 4 C-3.64 3.34 -6.28 2.68 -9 2 C-5.5647952 -0.29013653 -4.014669 -0.17842973 0 0 Z " fill="#CED5DA" transform="translate(58,173)"/>
<path d="M0 0 C2.46800047 1.15173355 4.04783565 2.04783565 6 4 C3 6 3 6 0 6 C0 4.02 0 2.04 0 0 Z " fill="#171D30" transform="translate(281,159)"/>
<path d="M0 0 C0.66 1.32 1.32 2.64 2 4 C1.34 4 0.68 4 0 4 C0 4.66 0 5.32 0 6 C-1.9375 5.625 -1.9375 5.625 -4 5 C-4.33 4.34 -4.66 3.68 -5 3 C-3.35 2.01 -1.7 1.02 0 0 Z " fill="#16213E" transform="translate(124,152)"/>
<path d="M0 0 C1.67542976 0.28604898 3.34385343 0.61781233 5 1 C5 2.32 5 3.64 5 5 C4.01 5.33 3.02 5.66 2 6 C2 4.68 2 3.36 2 2 C1.01 1.67 0.02 1.34 -1 1 C-0.67 0.67 -0.34 0.34 0 0 Z " fill="#091230" transform="translate(134,152)"/>
<path d="M0 0 C2.475 0.99 2.475 0.99 5 2 C4.34 2.66 3.68 3.32 3 4 C2.34 3.67 1.68 3.34 1 3 C0.67 3.66 0.34 4.32 0 5 C-2.97 4.505 -2.97 4.505 -6 4 C-6 3.67 -6 3.34 -6 3 C-4.02 3 -2.04 3 0 3 C0 2.01 0 1.02 0 0 Z " fill="#D2D8DE" transform="translate(36,137)"/>
<path d="M0 0 C0.99 0 1.98 0 3 0 C3.33 1.32 3.66 2.64 4 4 C3.34 4 2.68 4 2 4 C1.67 4.66 1.34 5.32 1 6 C0 5 0 5 -0.0625 2.4375 C-0.041875 1.633125 -0.02125 0.82875 0 0 Z " fill="#FAFCFA" transform="translate(70,154)"/>
<path d="M0 0 C2.1385485 2.1385485 2.42655063 3.13275314 3 6 C2.01 6.495 2.01 6.495 1 7 C0.01 6.01 -0.98 5.02 -2 4 C-1 1 -1 1 0 0 Z " fill="#F5F6FC" transform="translate(163,114)"/>
<path d="M0 0 C1.2077558 3.62326739 0.54311128 4.64146369 -1 8 C-1.66 8 -2.32 8 -3 8 C-3 6.02 -3 4.04 -3 2 C-2.01 2 -1.02 2 0 2 C0 1.34 0 0.68 0 0 Z " fill="#0B1333" transform="translate(172,92)"/>
<path d="M0 0 C0.66 0.66 1.32 1.32 2 2 C1.625 4.125 1.625 4.125 1 6 C-1.97 5.505 -1.97 5.505 -5 5 C-4 3 -4 3 -1 2 C-0.67 1.34 -0.34 0.68 0 0 Z " fill="#1A1E2C" transform="translate(318,178)"/>
<path d="M0 0 C1.0625 1.8125 1.0625 1.8125 2 4 C1.67 4.99 1.34 5.98 1 7 C0.34 7 -0.32 7 -1 7 C-1.625 4.625 -1.625 4.625 -2 2 C-1.34 1.34 -0.68 0.68 0 0 Z " fill="#0F1930" transform="translate(258,172)"/>
<path d="M0 0 C1.99097846 2.98646769 2.94124926 5.59687262 4 9 C3.34 9 2.68 9 2 9 C2 8.01 2 7.02 2 6 C1.01 6 0.02 6 -1 6 C-0.67 4.02 -0.34 2.04 0 0 Z " fill="#282E46" transform="translate(213,161)"/>
<path d="M0 0 C0.66 1.32 1.32 2.64 2 4 C0.68 4.99 -0.64 5.98 -2 7 C-2.66 5.68 -3.32 4.36 -4 3 C-3.34 3 -2.68 3 -2 3 C-2 2.34 -2 1.68 -2 1 C-1.34 0.67 -0.68 0.34 0 0 Z " fill="#061238" transform="translate(146,163)"/>
<path d="M0 0 C0.33 0 0.66 0 1 0 C0.67 2.31 0.34 4.62 0 7 C-1.32 7.33 -2.64 7.66 -4 8 C-2.87548273 5.0280615 -1.77706209 2.66559313 0 0 Z " fill="#DBE0E7" transform="translate(69,154)"/>
<path d="M0 0 C4.95 0.99 4.95 0.99 10 2 C10 2.33 10 2.66 10 3 C3.9453125 3.9765625 3.9453125 3.9765625 2 4 C1.34 3.34 0.68 2.68 0 2 C0 1.34 0 0.68 0 0 Z " fill="#293040" transform="translate(296,145)"/>
<path d="M0 0 C2.97 0.495 2.97 0.495 6 1 C5.67 1.66 5.34 2.32 5 3 C4.34 3 3.68 3 3 3 C2.67 3.66 2.34 4.32 2 5 C1.01 5.495 1.01 5.495 0 6 C0 4.02 0 2.04 0 0 Z " fill="#E7ECF2" transform="translate(94,145)"/>
<path d="M0 0 C2.625 -0.1875 2.625 -0.1875 5 0 C5 0.99 5 1.98 5 3 C2.69 3 0.38 3 -2 3 C-1.34 2.01 -0.68 1.02 0 0 Z " fill="#F6FBFE" transform="translate(31,137)"/>
<path d="M0 0 C0.66 0.66 1.32 1.32 2 2 C1.63723355 4.82957829 0.90305236 7.29084291 0 10 C-0.66 9.67 -1.32 9.34 -2 9 C-1.34 6.03 -0.68 3.06 0 0 Z " fill="#585D6E" transform="translate(195,122)"/>
<path d="M0 0 C1.32 1.32 2.64 2.64 4 4 C3.01 5.485 3.01 5.485 2 7 C0.4375 5.75 0.4375 5.75 -1 4 C-0.6875 1.8125 -0.6875 1.8125 0 0 Z " fill="#0F1731" transform="translate(102,178)"/>
<path d="M0 0 C0 0.99 0 1.98 0 3 C-2.875 3.625 -2.875 3.625 -6 4 C-6.66 3.34 -7.32 2.68 -8 2 C-2.25 0 -2.25 0 0 0 Z " fill="#1F253F" transform="translate(95,179)"/>
<path d="M0 0 C2 3 2 3 1.625 5.1875 C1.41875 5.785625 1.2125 6.38375 1 7 C0.34 7 -0.32 7 -1 7 C-1.625 5.1875 -1.625 5.1875 -2 3 C-1.34 2.01 -0.68 1.02 0 0 Z " fill="#0E1931" transform="translate(211,156)"/>
<path d="M0 0 C0.66 0 1.32 0 2 0 C2.6875 2.3125 2.6875 2.3125 3 5 C1.5625 6.8125 1.5625 6.8125 0 8 C-0.38063221 5.6739143 -0.71269945 3.33944736 -1 1 C-0.67 0.67 -0.34 0.34 0 0 Z " fill="#E3EAEE" transform="translate(119,158)"/>
<path d="M0 0 C0.99 0.33 1.98 0.66 3 1 C2.67 3.31 2.34 5.62 2 8 C0.4375 6.25 0.4375 6.25 -1 4 C-0.6875 1.75 -0.6875 1.75 0 0 Z " fill="#E9EBED" transform="translate(70,159)"/>
<path d="M0 0 C-1.28965176 1.37562854 -2.62689293 2.70766393 -4 4 C-4.66 4 -5.32 4 -6 4 C-6.33 3.01 -6.66 2.02 -7 1 C-4.53721199 -0.231394 -2.7204945 -0.07159196 0 0 Z " fill="#DCE4EB" transform="translate(250,154)"/>
<path d="M0 0 C3.26954202 0.56371414 4.82575883 1.49962266 7 4 C6.34 4.66 5.68 5.32 5 6 C3.35 4.02 1.7 2.04 0 0 Z " fill="#BFC6D1" transform="translate(166,126)"/>
<path d="M0 0 C0.66 0.33 1.32 0.66 2 1 C1.34 2.32 0.68 3.64 0 5 C-0.99 5 -1.98 5 -3 5 C-3.33 4.01 -3.66 3.02 -4 2 C-2.125 0.9375 -2.125 0.9375 0 0 Z " fill="#F7FAFD" transform="translate(185,115)"/>
<path d="M0 0 C0.433125 0.9590625 0.433125 0.9590625 0.875 1.9375 C1.82823451 4.15206079 1.82823451 4.15206079 4 5 C3.67 5.99 3.34 6.98 3 8 C0.47411298 5.63707344 -0.88820837 4.33537489 -2 1 C-1.34 0.67 -0.68 0.34 0 0 Z " fill="#1E2743" transform="translate(171,104)"/>
</svg>
